<svg width="78" height="78" viewBox="0 0 78 78" fill="none" xmlns="http://www.w3.org/2000/svg">
<path d="M8.05758 0.165114C7.62828 0.23116 6.83573 0.46232 6.27434 0.660457C3.50042 1.71719 1.48603 3.83065 0.429297 6.76969L0 7.99153V39V70.0085L0.429297 71.2303C1.51905 74.3345 3.59949 76.4149 6.70364 77.5047L7.92549 77.9339L42.9297 77.967L77.9339 78V43.8874V9.74174H75.4903H73.0466V41.4437V73.1456H41.0144C5.15157 73.1456 8.05758 73.2447 6.57155 72.0229C4.95343 70.7019 4.35902 68.4894 5.11854 66.508C5.58086 65.2862 6.70364 64.1634 7.89246 63.7341L8.78408 63.4039H38.4716H68.1922V31.7019V0H38.5377C22.1914 0.0330229 8.48688 0.0990686 8.05758 0.165114Z" fill="url(#paint0_linear_1124_638)"/>
<path d="M27.6575 40.9725H44.9725V39.0486H27.6575V40.9725ZM36.315 34.831L42.6788 28.4672L41.3171 27.1056L37.277 31.1236V21.7336H35.3531V31.1236L31.3129 27.1056L29.9513 28.4672L36.315 34.831ZM36.3213 49.63C33.927 49.63 31.6759 49.1757 29.5679 48.2669C27.4603 47.3582 25.6268 46.125 24.0675 44.5673C22.5082 43.0096 21.2739 41.1777 20.3645 39.0717C19.4548 36.966 19 34.7159 19 32.3213C19 29.927 19.4544 27.6759 20.3631 25.5679C21.2718 23.4603 22.505 21.6268 24.0627 20.0675C25.6204 18.5082 27.4523 17.2739 29.5583 16.3645C31.664 15.4548 33.9142 15 36.3088 15C38.703 15 40.9541 15.4544 43.0621 16.3631C45.1697 17.2718 47.0032 18.505 48.5625 20.0627C50.1218 21.6204 51.3561 23.4523 52.2655 25.5583C53.1752 27.664 53.63 29.9142 53.63 32.3088C53.63 34.703 53.1757 36.9541 52.2669 39.0621C51.3582 41.1697 50.125 43.0032 48.5673 44.5625C47.0096 46.1218 45.1777 47.3561 43.0717 48.2655C40.966 49.1752 38.7159 49.63 36.3213 49.63ZM36.315 47.7061C40.6117 47.7061 44.251 46.2151 47.2331 43.2331C50.2151 40.251 51.7061 36.6117 51.7061 32.315C51.7061 28.0183 50.2151 24.379 47.2331 21.3969C44.251 18.4149 40.6117 16.9239 36.315 16.9239C32.0183 16.9239 28.379 18.4149 25.3969 21.3969C22.4149 24.379 20.9239 28.0183 20.9239 32.315C20.9239 36.6117 22.4149 40.251 25.3969 43.2331C28.379 46.2151 32.0183 47.7061 36.315 47.7061Z" fill="white"/>
<path d="M13 67C12.1716 67 11.5 67.6716 11.5 68.5C11.5 69.3284 12.1716 70 13 70V67ZM13 70H68V67H13V70Z" fill="#E8505B"/>
<defs>
<linearGradient id="paint0_linear_1124_638" x1="38.967" y1="0" x2="38.967" y2="78" gradientUnits="userSpaceOnUse">
<stop stop-color="#BA3338"/>
<stop offset="1" stop-color="#F6434A"/>
</linearGradient>
</defs>
</svg>
